# xmcd
#
# Track frame offsets: 
#        150
#        13362
#        29197
#        39562
#        52332
#        64077
#        78315
#        92587
#        106462
#        123930
#        136800
#        152070
#        166347
#        178080
#        190242
#        200055
#        209812
#        224862
#
# Disc length: 3185 seconds
#
# Revision: 8
# Processed by: cddbd v1.5.1PL2 Copyright (c) Steve Scherf et al.
# Submitted via: ExactAudioCopy v0.90b4
#
DISCID=1c0c6f12
DTITLE=George Strait - Strait Out Of The Box [CD4]
DYEAR=1995
DGENRE=Country
TTITLE0=Wonderland Of Love
TTITLE1=I Cross My Heart
TTITLE2=Heartland
TTITLE3=When Did You Stop Loving Me
TTITLE4=Overnight Male
TTITLE5=The King Of Broken Hearts
TTITLE6=Where The Sidewalk ends
TTITLE7=Easy Come, Easy Go
TTITLE8=I'd Like To Have That One Back
TTITLE9=Lovebug
TTITLE10=The Man In Love With You
TTITLE11=Just Look At Me
TTITLE12=Stay Out Of My Arms
TTITLE13=Big Ball's In Cowtown (feat. Asleep At The Wheel)
TTITLE14=The Big One
TTITLE15=Fly Me To the Moon (feat. Frank Sinatra)
TTITLE16=Check Yes Or No
TTITLE17=I Know She Still Loves Me
EXTD=
EXTT0=
EXTT1=
EXTT2=
EXTT3=
EXTT4=
EXTT5=
EXTT6=
EXTT7=
EXTT8=
EXTT9=
EXTT10=
EXTT11=
EXTT12=
EXTT13=
EXTT14=
EXTT15=
EXTT16=
EXTT17=
PLAYORDER=
